<svg xmlns="http://www.w3.org/2000/svg" xmlns:xlink="http://www.w3.org/1999/xlink" viewBox="0 0 16 16" enable-background="new 0 0 16 16"><path fill="#636363" d="M0 1H2V2H3V3H4V5H6V6H7V3L6 3.03V2H9V3h1V4H9V6h1V5h2V3h1V2h1V1h2V2H15V3h1V4H15V5h1V6.01H14V7h1V8H14v2H13v1H10V10H9v2H9.99L10 13h2v2H10V14H9v1H7V14H6v1H4V13H6V12H7V10H6v1H3V10H2V8H1V7H2V6H0V5H1V4H0V3H1V2H0z"/><path d="M0 2h1v1H0z"/><path d="M0 4h1v1H0z"/><path fill="#6b0800" d="M3 6h1v1H3z"/><path fill="#6b0800" d="M4 7h1v1H4z"/><path fill="#6b0800" d="M6 8h1v1H6z"/><path fill="#6b0800" d="M9 8h1v1H9z"/><path fill="#6b0800" d="M11 7h1v1H11z"/><path fill="#6b0800" d="M12 6h1v1H12z"/><path fill="#6b0800" d="M8 3h1v1H8z"/></svg>