<svg xmlns="http://www.w3.org/2000/svg" xmlns:xlink="http://www.w3.org/1999/xlink" viewBox="0 0 16 16" enable-background="new 0 0 16 16"><path fill="#e7e794" d="M7 2H8V6h2V7h1V4h3V15H11V13H10v1H5V13H4v2H1V4H4V7H5V6H7z"/><path fill="#e79c21" d="M4 4V5H3v9H4v1H2V4z"/><path fill="#e79c21" d="M6 6V8H8V9H7v2H6v1H7v2h3V13h1v2h3V4H12V5H11V7H10V6H8V7H7V6z"/><path fill="#e79c21" d="M5 8h1v3H5z"/><path fill="#6b6b00" d="M8 9v2H7v1H9V9z"/><path fill="#6b6b00" d="M5 13h5v1H5z"/><path fill="#6b6b00" d="M4 12h1v1H4z"/><path fill="#6b6b00" d="M8 6h2v1H8z"/><path fill="#6b6b00" d="M2 4h2v1H2z"/><path fill="#6b6b00" d="M1 6h2v1H1z"/><path fill="#6b6b00" d="M1 8h2v1H1z"/><path fill="#6b6b00" d="M1 10h2v1H1z"/><path fill="#6b6b00" d="M1 12h2v1H1z"/><path fill="#6b6b00" d="M2 14h2v1H2z"/><path fill="#6b6b00" d="M10 7h1V5h1V4h2V5H12V6h2V7H12V8h2V9H12v1h2v1H12v1h2v1H12v1h2v1H11V13H10V12h1V8H10z"/></svg>