<?xml version="1.0" encoding="utf-8"?>
<!-- Generator: Adobe Illustrator 25.1.0, SVG Export Plug-In . SVG Version: 6.00 Build 0)  -->
<svg version="1.1" id="Слой_1" xmlns="http://www.w3.org/2000/svg" xmlns:xlink="http://www.w3.org/1999/xlink" x="0px" y="0px"
	 viewBox="0 0 8 8" enable-background="new 0 0 8 8" xml:space="preserve">
<polygon points="7,0 6,0 6,2 5,2 5,1 4,1 4,0 3,0 3,1 2,1 2,2 1,2 1,0 0,0 0,6 1,6 1,4 2,4 2,5 3,5 3,6 2,6 2,7 5,7 5,6 4,6 4,5 
	5,5 5,4 6,4 6,6 7,6 "/>
<rect x="3" y="2" fill="#6B0B09" width="1" height="2"/>
</svg>
