<?xml version="1.0" encoding="utf-8"?>
<!-- Generator: Adobe Illustrator 25.1.0, SVG Export Plug-In . SVG Version: 6.00 Build 0)  -->
<svg version="1.1" id="Слой_1" xmlns="http://www.w3.org/2000/svg" xmlns:xlink="http://www.w3.org/1999/xlink" x="0px" y="0px"
	 viewBox="0 0 16 8" enable-background="new 0 0 16 8" xml:space="preserve">
<rect fill="#9C4A00" width="16" height="8"/>
<rect fill="#6B0800" width="4" height="1"/>
<path fill="#636363" d="M16,4V3h-3V0h-1v3H5V0H4v3H0v5h16V7H9V4H16z M8,7H1V4h7V7z"/>
<polygon fill="#6B0800" points="8,4 8,5 2,5 2,7 1,7 1,4 "/>
<polygon fill="#6B0800" points="12,0 12,1 6,1 6,3 5,3 5,0 "/>
<polygon fill="#6B0800" points="16,4 16,5 10,5 10,7 9,7 9,4 "/>
<polygon fill="#6B0800" points="13,0 13,3 14,3 14,1 16,1 16,0 "/>
</svg>
