<svg xmlns="http://www.w3.org/2000/svg" xmlns:xlink="http://www.w3.org/1999/xlink" viewBox="0 0 8 8" enable-background="new 0 0 8 8"><g><path fill="#8cd600" d="M0 0h8v8H0z"/></g><path fill="#005208" d="M0 0V6H3V5H2V4H3V3H5V1H6V0z"/><path fill="#005208" d="M6 1h1v1H6z"/><path fill="#005208" d="M5 3h2v1H5z"/><path fill="#005208" d="M7 4h1v1H7z"/><path fill="#005208" d="M3 7h1v1H3z"/><path fill="#005208" d="M5 6h1v1H5z"/><path fill="#005208" d="M3 4h1v1H3z"/><path fill="#8cd600" d="M3 1h1v1H3z"/><path d="M7 7h1v1H7z"/><path d="M7 0h1v1H7z"/><path d="M0 0h1v1H0z"/><path d="M0 7h1v1H0z"/></svg>