<svg xmlns="http://www.w3.org/2000/svg" xmlns:xlink="http://www.w3.org/1999/xlink" viewBox="0 0 8 8" enable-background="new 0 0 8 8"><g><path fill="#adadad" d="M0 0h8v8H0z"/></g><path fill="#fff" d="M3 0h1v1H3z"/><path fill="#fff" d="M7 0h1v1H7z"/><path fill="#fff" d="M6 1h1v1H6z"/><path fill="#fff" d="M5 2h1v1H5z"/><path fill="#fff" d="M4 3h1v1H4z"/><path fill="#fff" d="M3 4h1v1H3z"/><path fill="#fff" d="M2 5h1v1H2z"/><path fill="#fff" d="M1 6h1v1H1z"/><path fill="#fff" d="M0 7h1v1H0z"/><path fill="#fff" d="M0 3h1v1H0z"/><path fill="#fff" d="M4 7h1v1H4z"/><path fill="#fff" d="M5 6h1v1H5z"/><path fill="#fff" d="M6 5h1v1H6z"/><path fill="#fff" d="M7 4h1v1H7z"/><path fill="#636363" d="M0 0h1v1H0z"/><path fill="#636363" d="M4 0h1v1H4z"/><path fill="#636363" d="M7 1h1v1H7z"/><path fill="#636363" d="M6 2h1v1H6z"/><path fill="#636363" d="M5 3h1v1H5z"/><path fill="#636363" d="M4 4h1v1H4z"/><path fill="#636363" d="M3 5h1v1H3z"/><path fill="#636363" d="M2 6h1v1H2z"/><path fill="#636363" d="M1 7h1v1H1z"/><path fill="#636363" d="M7 5h1v1H7z"/><path fill="#636363" d="M6 6h1v1H6z"/><path fill="#636363" d="M5 7h1v1H5z"/><path fill="#636363" d="M0 4h1v1H0z"/></svg>