<svg xmlns="http://www.w3.org/2000/svg" xmlns:xlink="http://www.w3.org/1999/xlink" viewBox="0 0 8 8" enable-background="new 0 0 8 8"><g><path fill="#4242ff" d="M0 0h8v8H0z"/></g><path fill="#b5efef" d="M0 2h1v1H0z"/><path fill="#b5efef" d="M1 3h1v1H1z"/><path fill="#b5efef" d="M1 6h1v1H1z"/><path fill="#b5efef" d="M2 7h1v1H2z"/><path fill="#b5efef" d="M6 7h1v1H6z"/><path fill="#b5efef" d="M5 4h1v1H5z"/><path fill="#b5efef" d="M4 3h1v1H4z"/><path fill="#b5efef" d="M3 4h1v1H3z"/><path fill="#b5efef" d="M5 0h1v1H5z"/><path fill="#adadad" d="M7 0h1v1H7z"/><path fill="#adadad" d="M7 4h1v1H7z"/><path fill="#adadad" d="M6 3h1v1H6z"/><path fill="#adadad" d="M0 7h1v1H0z"/><path fill="#adadad" d="M1 1h1v1H1z"/><path fill="#adadad" d="M2 2h1v1H2z"/><path fill="#adadad" d="M3 3h1v1H3z"/><path fill="#adadad" d="M3 5h1v1H3z"/><path fill="#adadad" d="M2 6h1v1H2z"/><path fill="#adadad" d="M4 6h1v1H4z"/></svg>