<svg width="110" height="110" viewBox="0 0 110 110" fill="none" xmlns="http://www.w3.org/2000/svg">
<rect x="0.314819" y="16.7665" width="8.38329" height="8.38328" transform="rotate(0.195569 0.314819 16.7665)" fill="#E7E794"/>
<rect x="8.69812" y="16.7951" width="16.7666" height="8.38328" transform="rotate(0.195569 8.69812 16.7951)" fill="#E79C21"/>
<rect x="0.286255" y="25.1497" width="8.38329" height="8.38328" transform="rotate(0.195569 0.286255 25.1497)" fill="#6B6B00"/>
<rect x="8.66956" y="25.1783" width="8.38329" height="8.38328" transform="rotate(0.195569 8.66956 25.1783)" fill="#6B6B00"/>
<rect x="0.257568" y="33.5329" width="8.38329" height="8.38328" transform="rotate(0.195569 0.257568 33.5329)" fill="#E7E794"/>
<rect x="8.64087" y="33.5615" width="8.38329" height="8.38328" transform="rotate(0.195569 8.64087 33.5615)" fill="#E79C21"/>
<rect x="0.200439" y="50.2994" width="8.38329" height="8.38328" transform="rotate(0.195569 0.200439 50.2994)" fill="#E7E794"/>
<rect x="8.58362" y="50.328" width="8.38329" height="8.38328" transform="rotate(0.195569 8.58362 50.328)" fill="#E79C21"/>
<rect x="8.61218" y="41.9448" width="8.38329" height="8.38328" transform="rotate(0.195569 8.61218 41.9448)" fill="#6B6B00"/>
<rect x="0.0286865" y="100.599" width="8.38329" height="8.38328" transform="rotate(0.195569 0.0286865 100.599)" fill="#E7E794"/>
<rect x="8.41199" y="100.627" width="16.7666" height="8.38328" transform="rotate(0.195569 8.41199 100.627)" fill="#E79C21"/>
<rect x="0.057251" y="92.2155" width="16.7666" height="8.38328" transform="rotate(0.195569 0.057251 92.2155)" fill="#6B6B00"/>
<rect x="0.0859375" y="83.8323" width="8.38329" height="8.38328" transform="rotate(0.195569 0.0859375 83.8323)" fill="#E7E794"/>
<rect x="8.46912" y="83.861" width="8.38329" height="8.38328" transform="rotate(0.195569 8.46912 83.861)" fill="#E79C21"/>
<rect x="0.114624" y="75.4492" width="16.7666" height="8.38328" transform="rotate(0.195569 0.114624 75.4492)" fill="#6B6B00"/>
<rect x="0.200439" y="50.2994" width="8.38329" height="8.38328" transform="rotate(0.195569 0.200439 50.2994)" fill="#E7E794"/>
<rect x="8.58362" y="50.328" width="8.38329" height="8.38328" transform="rotate(0.195569 8.58362 50.328)" fill="#E79C21"/>
<rect x="0.229004" y="41.9162" width="8.38329" height="8.38328" transform="rotate(0.195569 0.229004 41.9162)" fill="#6B6B00"/>
<rect x="0.143188" y="67.0658" width="8.38329" height="8.38328" transform="rotate(0.195569 0.143188 67.0658)" fill="#E7E794"/>
<rect x="8.52637" y="67.0945" width="8.38329" height="8.38328" transform="rotate(0.195569 8.52637 67.0945)" fill="#E79C21"/>
<rect x="0.171753" y="58.6826" width="16.7666" height="8.38328" transform="rotate(0.195569 0.171753 58.6826)" fill="#6B6B00"/>
<rect x="17.0527" y="25.2069" width="8.38329" height="75.4496" transform="rotate(0.195569 17.0527 25.2069)" fill="#E7E794"/>
<rect x="25.3787" y="42.0021" width="8.38329" height="41.9164" transform="rotate(0.195569 25.3787 42.0021)" fill="#E7E794"/>
<rect x="25.2356" y="83.9182" width="8.38329" height="8.38328" transform="rotate(0.195569 25.2356 83.9182)" fill="#6B6B00"/>
<rect x="33.5902" y="92.33" width="41.9164" height="8.38328" transform="rotate(0.195569 33.5902 92.33)" fill="#6B6B00"/>
<rect x="33.7905" y="33.6473" width="8.38329" height="16.7666" transform="rotate(0.195569 33.7905 33.6473)" fill="#E7E794"/>
<rect x="33.7333" y="50.4139" width="8.38329" height="25.1499" transform="rotate(0.195569 33.7333 50.4139)" fill="#E79C21"/>
<rect x="33.6476" y="75.5636" width="8.38329" height="16.7666" transform="rotate(0.195569 33.6476 75.5636)" fill="#E7E794"/>
<rect x="42.1738" y="33.676" width="8.38329" height="16.7666" transform="rotate(0.195569 42.1738 33.676)" fill="#E79C21"/>
<rect x="50.6715" y="0.171684" width="8.38329" height="41.9164" transform="rotate(0.195569 50.6715 0.171684)" fill="#E7E794"/>
<rect x="58.9403" y="33.7332" width="16.7666" height="8.38328" transform="rotate(0.195569 58.9403 33.7332)" fill="#6B6B00"/>
<rect x="67.2949" y="42.1451" width="8.38329" height="50.2997" transform="rotate(0.195569 67.2949 42.1451)" fill="#E79C21"/>
<rect x="50.5284" y="42.0879" width="16.7666" height="8.38328" transform="rotate(0.195569 50.5284 42.0879)" fill="#E79C21"/>
<rect x="42.1166" y="50.4425" width="8.38329" height="8.38328" transform="rotate(0.195569 42.1166 50.4425)" fill="#E7E794"/>
<rect x="42.088" y="58.8257" width="8.38329" height="8.38328" transform="rotate(0.195569 42.088 58.8257)" fill="#E7E794"/>
<rect x="42.0593" y="67.2089" width="8.38329" height="8.38328" transform="rotate(0.195569 42.0593 67.2089)" fill="#E7E794"/>
<rect x="42.0308" y="75.5922" width="8.38329" height="8.38328" transform="rotate(0.195569 42.0308 75.5922)" fill="#E79C21"/>
<rect x="42.0021" y="83.9754" width="8.38329" height="8.38328" transform="rotate(0.195569 42.0021 83.9754)" fill="#E7E794"/>
<rect x="50.4998" y="50.4711" width="8.38329" height="8.38328" transform="rotate(0.195569 50.4998 50.4711)" fill="#E7E794"/>
<rect x="58.8831" y="50.4997" width="8.38329" height="8.38328" transform="rotate(0.195569 58.8831 50.4997)" fill="#E79C21"/>
<rect x="50.4712" y="58.8543" width="8.38329" height="8.38328" transform="rotate(0.195569 50.4712 58.8543)" fill="#E79C21"/>
<rect x="58.8545" y="58.883" width="8.38329" height="8.38328" transform="rotate(0.195569 58.8545 58.883)" fill="#6B6B00"/>
<rect x="50.4426" y="67.2375" width="8.38329" height="8.38328" transform="rotate(0.195569 50.4426 67.2375)" fill="#E79C21"/>
<rect x="58.8258" y="67.2661" width="8.38329" height="8.38328" transform="rotate(0.195569 58.8258 67.2661)" fill="#6B6B00"/>
<rect x="50.4141" y="75.6209" width="8.38329" height="8.38328" transform="rotate(0.195569 50.4141 75.6209)" fill="#6B6B00"/>
<rect x="58.7972" y="75.6495" width="8.38329" height="8.38328" transform="rotate(0.195569 58.7972 75.6495)" fill="#6B6B00"/>
<rect x="50.3854" y="84.004" width="8.38329" height="8.38328" transform="rotate(0.195569 50.3854 84.004)" fill="#E79C21"/>
<rect x="58.7687" y="84.0327" width="8.38329" height="8.38328" transform="rotate(0.195569 58.7687 84.0327)" fill="#E79C21"/>
<rect x="75.6781" y="42.1737" width="8.38329" height="8.38328" transform="rotate(0.195569 75.6781 42.1737)" fill="#6B6B00"/>
<rect x="75.6495" y="50.5569" width="8.38329" height="8.38328" transform="rotate(0.195569 75.6495 50.5569)" fill="#E79C21"/>
<rect x="75.5923" y="67.3234" width="8.38329" height="8.38328" transform="rotate(0.195569 75.5923 67.3234)" fill="#E79C21"/>
<rect x="75.5352" y="84.0899" width="8.38329" height="8.38328" transform="rotate(0.195569 75.5352 84.0899)" fill="#6B6B00"/>
<rect x="84.1472" y="17.0527" width="8.38329" height="8.38328" transform="rotate(0.195569 84.1472 17.0527)" fill="#E7E794"/>
<rect x="84.1187" y="25.4358" width="8.38329" height="8.38328" transform="rotate(0.195569 84.1187 25.4358)" fill="#6B6B00"/>
<rect x="84.0901" y="33.819" width="8.38329" height="8.38328" transform="rotate(0.195569 84.0901 33.819)" fill="#6B6B00"/>
<rect x="84.0614" y="42.2024" width="8.38329" height="8.38328" transform="rotate(0.195569 84.0614 42.2024)" fill="#6B6B00"/>
<rect x="84.0327" y="50.5856" width="8.38329" height="8.38328" transform="rotate(0.195569 84.0327 50.5856)" fill="#6B6B00"/>
<rect x="84.0042" y="58.9688" width="8.38329" height="8.38328" transform="rotate(0.195569 84.0042 58.9688)" fill="#6B6B00"/>
<rect x="83.9756" y="67.352" width="8.38329" height="8.38328" transform="rotate(0.195569 83.9756 67.352)" fill="#6B6B00"/>
<rect x="83.9469" y="75.7353" width="8.38329" height="8.38328" transform="rotate(0.195569 83.9469 75.7353)" fill="#6B6B00"/>
<rect x="83.9183" y="84.1185" width="8.38329" height="8.38328" transform="rotate(0.195569 83.9183 84.1185)" fill="#6B6B00"/>
<rect x="83.8896" y="92.5017" width="8.38329" height="8.38328" transform="rotate(0.195569 83.8896 92.5017)" fill="#6B6B00"/>
<rect x="83.8611" y="100.885" width="8.38329" height="8.38328" transform="rotate(0.195569 83.8611 100.885)" fill="#6B6B00"/>
<rect x="92.5305" y="17.0813" width="8.38329" height="8.38328" transform="rotate(0.195569 92.5305 17.0813)" fill="#E79C21"/>
<rect x="100.914" y="17.1099" width="8.38329" height="8.38328" transform="rotate(0.195569 100.914 17.1099)" fill="#E79C21"/>
<rect x="92.5018" y="25.4645" width="8.38329" height="8.38328" transform="rotate(0.195569 92.5018 25.4645)" fill="#6B6B00"/>
<rect x="100.885" y="25.4931" width="8.38329" height="8.38328" transform="rotate(0.195569 100.885 25.4931)" fill="#6B6B00"/>
<rect x="92.4733" y="33.8476" width="8.38329" height="8.38328" transform="rotate(0.195569 92.4733 33.8476)" fill="#E79C21"/>
<rect x="100.857" y="33.8763" width="8.38329" height="8.38328" transform="rotate(0.195569 100.857 33.8763)" fill="#E79C21"/>
<rect x="92.4446" y="42.231" width="8.38329" height="8.38328" transform="rotate(0.195569 92.4446 42.231)" fill="#6B6B00"/>
<rect x="100.828" y="42.2596" width="8.38329" height="8.38328" transform="rotate(0.195569 100.828 42.2596)" fill="#6B6B00"/>
<rect x="92.416" y="50.6142" width="8.38329" height="8.38328" transform="rotate(0.195569 92.416 50.6142)" fill="#E79C21"/>
<rect x="100.799" y="50.6428" width="8.38329" height="8.38328" transform="rotate(0.195569 100.799 50.6428)" fill="#E79C21"/>
<rect x="92.3875" y="58.9974" width="8.38329" height="8.38328" transform="rotate(0.195569 92.3875 58.9974)" fill="#6B6B00"/>
<rect x="100.771" y="59.026" width="8.38329" height="8.38328" transform="rotate(0.195569 100.771 59.026)" fill="#6B6B00"/>
<rect x="92.3588" y="67.3806" width="8.38329" height="8.38328" transform="rotate(0.195569 92.3588 67.3806)" fill="#E79C21"/>
<rect x="100.742" y="67.4092" width="8.38329" height="8.38328" transform="rotate(0.195569 100.742 67.4092)" fill="#E79C21"/>
<rect x="92.3302" y="75.7639" width="8.38329" height="8.38328" transform="rotate(0.195569 92.3302 75.7639)" fill="#6B6B00"/>
<rect x="100.713" y="75.7925" width="8.38329" height="8.38328" transform="rotate(0.195569 100.713 75.7925)" fill="#6B6B00"/>
<rect x="92.3016" y="84.1471" width="8.38329" height="8.38328" transform="rotate(0.195569 92.3016 84.1471)" fill="#E79C21"/>
<rect x="100.685" y="84.1757" width="8.38329" height="8.38328" transform="rotate(0.195569 100.685 84.1757)" fill="#E79C21"/>
<rect x="92.2729" y="92.5303" width="8.38329" height="8.38328" transform="rotate(0.195569 92.2729 92.5303)" fill="#6B6B00"/>
<rect x="100.656" y="92.5589" width="8.38329" height="8.38328" transform="rotate(0.195569 100.656 92.5589)" fill="#6B6B00"/>
<rect x="92.2443" y="100.914" width="8.38329" height="8.38328" transform="rotate(0.195569 92.2443 100.914)" fill="#E79C21"/>
<rect x="100.628" y="100.942" width="8.38329" height="8.38328" transform="rotate(0.195569 100.628 100.942)" fill="#E79C21"/>
<rect x="75.621" y="58.9402" width="8.38329" height="8.38328" transform="rotate(0.195569 75.621 58.9402)" fill="#E79C21"/>
<rect x="75.5637" y="75.7067" width="8.38329" height="8.38328" transform="rotate(0.195569 75.5637 75.7067)" fill="#E79C21"/>
</svg>
